<?xml version="1.0"?>
<svg xmlns="http://www.w3.org/2000/svg" xmlns:xlink="http://www.w3.org/1999/xlink" xmlns:svgjs="http://svgjs.com/svgjs" version="1.1" width="512" height="512" x="0" y="0" viewBox="0 0 409.242 409.242" style="enable-background:new 0 0 512 512" xml:space="preserve" class="">
<g xmlns="http://www.w3.org/2000/svg">
	<path d="M201.685,234.803c-21.302-19.537-42.319-39.432-63.704-58.896c-10.443-9.496-12.148-17.95-0.627-28.275    c14.612-13.072,28.607-26.902,42.295-40.97c19.301-19.82,38.059-40.164,54.149-57.237C220.7,34.007,206.682,17.525,191.774,0    C140.917,49.328,91.767,96.431,43.432,144.362c-10.515,10.42-9.177,25.458,1.978,36.232    c40.46,39.074,81.465,77.582,123.062,117.035c12.03-11.414,23.374-21.834,34.303-32.682    C215.753,252.066,215.314,247.33,201.685,234.803z" fill="#007ACC" data-original="#000000" style="" class=""/>
	<path d="M310.704,179.341c-22.854-21.433-45.848-42.723-69.174-64.438c-12.492,11.937-23.471,22.854-34.919,33.249    c-10.515,9.567-9.817,17.666,0.697,27.021c22.393,19.939,44.119,40.638,66.237,60.886c9.98,9.142,10.882,17.666,0.497,27.472    c-22.558,21.338-44.793,43.006-66.925,64.771c-11.665,11.484-22.853,23.443-33.428,34.359    c14.991,15.678,29.604,30.979,44.51,46.582c2.927-1.539,4.003-1.822,4.701-2.486c46.961-45.207,94.026-90.297,140.729-135.766    c13.438-13.098,12.172-29.77-2.25-43.623C344.581,211.238,327.685,195.229,310.704,179.341z" fill="#7191a8" data-original="#000000" style="" class=""/>
</g>
</svg>
